<svg id="bg.svg" xmlns="http://www.w3.org/2000/svg" width="1558.159" height="1306.19" viewBox="0 0 1558.159 1306.19">
  <defs>
    <style>
      .cls-1 {
        fill: none;
        stroke: #fff;
        stroke-width: 2px;
        fill-rule: evenodd;
      }

      .cls-1, .cls-2 {
        opacity: 0.14;
      }

      .cls-2 {
        fill: #fff;
      }
    </style>
  </defs>
  <path class="cls-1" d="M353-334.969c184.446,0,333.969,149.3,333.969,333.469S537.446,331.969,353,331.969,19.031,182.67,19.031-1.5,168.554-334.969,353-334.969Z" transform="translate(-18.031)"/>
  <path class="cls-1" d="M353-222.5c122.141,0,221.156,98.791,221.156,220.656S475.141,218.813,353,218.813,131.844,120.021,131.844-1.844,230.859-222.5,353-222.5Z" transform="translate(-18.031)"/>
  <path class="cls-1" d="M353-118.219A116.282,116.282,0,0,1,469.188-1.844,116.281,116.281,0,0,1,353,114.531,116.281,116.281,0,0,1,236.812-1.844,116.282,116.282,0,0,1,353-118.219Z" transform="translate(-18.031)"/>
  <path class="cls-1" d="M354.159,115.2V219.842" transform="translate(-18.031)"/>
  <path class="cls-1" d="M193.068-154.628l-79-78.953" transform="translate(-18.031)"/>
  <path class="cls-1" d="M686.6-1.456H574.871" transform="translate(-18.031)"/>
  <ellipse class="cls-2" cx="335.985" cy="-2.016" rx="19.422" ry="19.422"/>
  <path class="cls-1" d="M972,100.813c333.13,0,603.19,269.608,603.19,602.187S1305.13,1305.19,972,1305.19,368.812,1035.58,368.812,703,638.869,100.813,972,100.813Z" transform="translate(-18.031)"/>
  <path class="cls-1" d="M972,303.906c220.6,0,399.44,178.4,399.44,398.469S1192.6,1100.84,972,1100.84s-399.437-178.4-399.437-398.465S751.4,303.906,972,303.906Z" transform="translate(-18.031)"/>
  <path class="cls-1" d="M972,492.219c115.89,0,209.84,94.09,209.84,210.156S1087.89,912.531,972,912.531s-209.844-94.09-209.844-210.156S856.107,492.219,972,492.219Z" transform="translate(-18.031)"/>
  <path class="cls-1" d="M974.093,913.739V1102.71" transform="translate(-18.031)"/>
  <path class="cls-1" d="M683.14,426.475L540.454,283.9" transform="translate(-18.031)"/>
  <path class="cls-1" d="M1574.52,703.08H1372.73" transform="translate(-18.031)"/>
  <circle class="cls-2" cx="955.799" cy="702.078" r="35.08"/>
</svg>
